<svg xmlns="http://www.w3.org/2000/svg" version="1.1" xmlns:xlink="http://www.w3.org/1999/xlink" xmlns:svgjs="http://svgjs.dev/svgjs" width="1500" height="939" viewBox="0 0 1500 939"><g transform="matrix(1,0,0,1,-0.9090909090909918,-1.5145161290323017)"><svg viewBox="0 0 396 248" data-background-color="#ffffff" preserveAspectRatio="xMidYMid meet" height="939" width="1500" xmlns="http://www.w3.org/2000/svg" xmlns:xlink="http://www.w3.org/1999/xlink"><g id="tight-bounds" transform="matrix(1,0,0,1,0.2400000000000091,0.4000000000000057)"><svg viewBox="0 0 395.52 247.2" height="247.2" width="395.52"><g><svg></svg></g><g><svg viewBox="0 0 395.52 247.2" height="247.2" width="395.52"><g transform="matrix(1,0,0,1,75.54432,94.20103917525773)"><svg viewBox="0 0 244.43135999999998 58.79792164948453" height="58.79792164948453" width="244.43135999999998"><g><svg viewBox="0 0 244.43135999999998 58.79792164948453" height="58.79792164948453" width="244.43135999999998"><g><svg viewBox="0 0 244.43135999999998 58.79792164948453" height="58.79792164948453" width="244.43135999999998"><g id="textblocktransform"><svg viewBox="0 0 244.43135999999998 58.79792164948453" height="58.79792164948453" width="244.43135999999998" id="textblock"><g><svg viewBox="0 0 244.43135999999998 58.79792164948453" height="58.79792164948453" width="244.43135999999998"><g transform="matrix(1,0,0,1,0,0)"><svg width="244.43135999999998" viewBox="1.7999999999999998 -28 116.39 28" height="58.79792164948453" data-palette-color="#000000"><path d="M17.2-26Q17.2-24.85 17-24L17-24 14-24Q14.2-23.2 14.2-22L14.2-22Q14.2-20.85 14-20L14-20Q14.2-19.2 14.2-18L14.2-18Q14.2-16.85 14-16L14-16Q14.2-15.2 14.2-14L14.2-14Q14.2-12.85 14-12L14-12Q14.2-11.2 14.2-10L14.2-10Q14.2-8.85 14-8L14-8Q14.2-7.2 14.2-6L14.2-6Q14.2-4.85 14-4L14-4 12-4Q12.2-3.2 12.2-2L12.2-2Q12.2-0.85 12 0L12 0 4 0Q3.8-0.85 3.8-2L3.8-2Q3.8-3.2 4-4L4-4 2-4Q1.8-4.85 1.8-6L1.8-6Q1.8-7.2 2-8L2-8 6-8Q6.2-7.2 6.2-6L6.2-6Q6.2-4.85 6-4L6-4 10-4Q9.8-4.85 9.8-6L9.8-6Q9.8-7.2 10-8L10-8Q9.8-8.85 9.8-10L9.8-10Q9.8-11.2 10-12L10-12Q9.8-12.85 9.8-14L9.8-14Q9.8-15.2 10-16L10-16Q9.8-16.85 9.8-18L9.8-18Q9.8-19.2 10-20L10-20Q9.8-20.85 9.8-22L9.8-22Q9.8-23.2 10-24L10-24 7-24Q6.8-24.85 6.8-26L6.8-26Q6.8-27.2 7-28L7-28 17-28Q17.2-27.2 17.2-26L17.2-26ZM38.2-6Q38.2-4.85 38-4L38-4Q38.2-3.2 38.2-2L38.2-2Q38.2-0.85 38 0L38 0 34 0Q33.8-0.85 33.8-2L33.8-2Q33.8-3.2 34-4L34-4Q33.8-4.85 33.8-6L33.8-6Q33.8-7.2 34-8L34-8 26-8Q26.2-7.2 26.2-6L26.2-6Q26.2-4.85 26-4L26-4Q26.2-3.2 26.2-2L26.2-2Q26.2-0.85 26 0L26 0 22 0Q21.8-0.85 21.8-2L21.8-2Q21.8-3.2 22-4L22-4Q21.8-4.85 21.8-6L21.8-6Q21.8-7.2 22-8L22-8 23.5-8Q23.3-8.85 23.3-10L23.3-10Q23.3-11.2 23.5-12L23.5-12Q23.3-12.85 23.3-14L23.3-14Q23.3-15.2 23.5-16L23.5-16 24.5-16Q24.3-16.85 24.3-18L24.3-18Q24.3-19.2 24.5-20L24.5-20 26-20Q25.8-20.85 25.8-22L25.8-22Q25.8-23.2 26-24L26-24 27-24Q26.8-24.85 26.8-26L26.8-26Q26.8-27.2 27-28L27-28 33-28Q33.2-27.2 33.2-26L33.2-26Q33.2-24.85 33-24L33-24 34-24Q34.2-23.2 34.2-22L34.2-22Q34.2-20.85 34-20L34-20 35.5-20Q35.7-19.2 35.7-18L35.7-18Q35.7-16.85 35.5-16L35.5-16 36.5-16Q36.7-15.2 36.7-14L36.7-14Q36.7-12.85 36.5-12L36.5-12Q36.7-11.2 36.7-10L36.7-10Q36.7-8.85 36.5-8L36.5-8 38-8Q38.2-7.2 38.2-6L38.2-6ZM32.5-12Q32.3-12.85 32.3-14L32.3-14Q32.3-15.2 32.5-16L32.5-16 31.5-16Q31.3-16.85 31.3-18L31.3-18Q31.3-19.2 31.5-20L31.5-20 28.5-20Q28.7-19.2 28.7-18L28.7-18Q28.7-16.85 28.5-16L28.5-16 27.5-16Q27.7-15.2 27.7-14L27.7-14Q27.7-12.85 27.5-12L27.5-12 32.5-12ZM52-4L55-4Q55.2-3.2 55.2-2L55.2-2Q55.2-0.85 55 0L55 0 45 0Q44.8-0.85 44.8-2L44.8-2Q44.8-3.2 45-4L45-4 48-4Q47.8-4.85 47.8-6L47.8-6Q47.8-7.2 48-8L48-8Q47.8-8.85 47.8-10L47.8-10Q47.8-11.2 48-12L48-12Q47.8-12.85 47.8-14L47.8-14Q47.8-15.2 48-16L48-16Q47.8-16.85 47.8-18L47.8-18Q47.8-19.2 48-20L48-20Q47.8-20.85 47.8-22L47.8-22Q47.8-23.2 48-24L48-24 45-24Q44.8-24.85 44.8-26L44.8-26Q44.8-27.2 45-28L45-28 55-28Q55.2-27.2 55.2-26L55.2-26Q55.2-24.85 55-24L55-24 52-24Q52.2-23.2 52.2-22L52.2-22Q52.2-20.85 52-20L52-20Q52.2-19.2 52.2-18L52.2-18Q52.2-16.85 52-16L52-16Q52.2-15.2 52.2-14L52.2-14Q52.2-12.85 52-12L52-12Q52.2-11.2 52.2-10L52.2-10Q52.2-8.85 52-8L52-8Q52.2-7.2 52.2-6L52.2-6Q52.2-4.85 52-4L52-4ZM77.99-16Q78.19-15.2 78.19-14L78.19-14Q78.19-12.85 77.99-12L77.99-12Q78.19-11.2 78.19-10L78.19-10Q78.19-8.85 77.99-8L77.99-8 75.99-8Q76.19-7.2 76.19-6L76.19-6Q76.19-4.85 75.99-4L75.99-4 73.99-4Q74.19-3.2 74.19-2L74.19-2Q74.19-0.85 73.99 0L73.99 0 61.99 0Q61.79-0.85 61.79-2L61.79-2Q61.79-3.2 61.99-4L61.99-4Q61.79-4.85 61.79-6L61.79-6Q61.79-7.2 61.99-8L61.99-8Q61.79-8.85 61.79-10L61.79-10Q61.79-11.2 61.99-12L61.99-12Q61.79-12.85 61.79-14L61.79-14Q61.79-15.2 61.99-16L61.99-16Q61.79-16.85 61.79-18L61.79-18Q61.79-19.2 61.99-20L61.99-20Q61.79-20.85 61.79-22L61.79-22Q61.79-23.2 61.99-24L61.99-24Q61.79-24.85 61.79-26L61.79-26Q61.79-27.2 61.99-28L61.99-28 73.99-28Q74.19-27.2 74.19-26L74.19-26Q74.19-24.85 73.99-24L73.99-24 75.99-24Q76.19-23.2 76.19-22L76.19-22Q76.19-20.85 75.99-20L75.99-20 77.99-20Q78.19-19.2 78.19-18L78.19-18Q78.19-16.85 77.99-16L77.99-16ZM73.99-8Q73.79-8.85 73.79-10L73.79-10Q73.79-11.2 73.99-12L73.99-12Q73.79-12.85 73.79-14L73.79-14Q73.79-15.2 73.99-16L73.99-16Q73.79-16.85 73.79-18L73.79-18Q73.79-19.2 73.99-20L73.99-20 71.99-20Q71.79-20.85 71.79-22L71.79-22Q71.79-23.2 71.99-24L71.99-24 65.99-24Q66.19-23.2 66.19-22L66.19-22Q66.19-20.85 65.99-20L65.99-20Q66.19-19.2 66.19-18L66.19-18Q66.19-16.85 65.99-16L65.99-16Q66.19-15.2 66.19-14L66.19-14Q66.19-12.85 65.99-12L65.99-12Q66.19-11.2 66.19-10L66.19-10Q66.19-8.85 65.99-8L65.99-8Q66.19-7.2 66.19-6L66.19-6Q66.19-4.85 65.99-4L65.99-4 71.99-4Q71.79-4.85 71.79-6L71.79-6Q71.79-7.2 71.99-8L71.99-8 73.99-8ZM95.99-12L87.99-12Q88.19-11.2 88.19-10L88.19-10Q88.19-8.85 87.99-8L87.99-8Q88.19-7.2 88.19-6L88.19-6Q88.19-4.85 87.99-4L87.99-4 95.99-4Q96.19-3.2 96.19-2L96.19-2Q96.19-0.85 95.99 0L95.99 0 83.99 0Q83.79-0.85 83.79-2L83.79-2Q83.79-3.2 83.99-4L83.99-4Q83.79-4.85 83.79-6L83.79-6Q83.79-7.2 83.99-8L83.99-8Q83.79-8.85 83.79-10L83.79-10Q83.79-11.2 83.99-12L83.99-12Q83.79-12.85 83.79-14L83.79-14Q83.79-15.2 83.99-16L83.99-16Q83.79-16.85 83.79-18L83.79-18Q83.79-19.2 83.99-20L83.99-20Q83.79-20.85 83.79-22L83.79-22Q83.79-23.2 83.99-24L83.99-24Q83.79-24.85 83.79-26L83.79-26Q83.79-27.2 83.99-28L83.99-28 95.99-28Q96.19-27.2 96.19-26L96.19-26Q96.19-24.85 95.99-24L95.99-24 87.99-24Q88.19-23.2 88.19-22L88.19-22Q88.19-20.85 87.99-20L87.99-20Q88.19-19.2 88.19-18L88.19-18Q88.19-16.85 87.99-16L87.99-16 95.99-16Q96.19-15.2 96.19-14L96.19-14Q96.19-12.85 95.99-12L95.99-12ZM117.99-24Q118.19-23.2 118.19-22L118.19-22Q118.19-20.85 117.99-20L117.99-20Q118.19-19.2 118.19-18L118.19-18Q118.19-16.85 117.99-16L117.99-16 116.49-16Q116.69-15.2 116.69-14L116.69-14Q116.69-12.85 116.49-12L116.49-12 114.99-12Q115.19-11.2 115.19-10L115.19-10Q115.19-8.85 114.99-8L114.99-8 113.99-8Q114.19-7.2 114.19-6L114.19-6Q114.19-4.85 113.99-4L113.99-4 111.99-4Q112.19-3.2 112.19-2L112.19-2Q112.19-0.85 111.99 0L111.99 0 107.99 0Q107.79-0.85 107.79-2L107.79-2Q107.79-3.2 107.99-4L107.99-4 105.99-4Q105.79-4.85 105.79-6L105.79-6Q105.79-7.2 105.99-8L105.99-8 104.99-8Q104.79-8.85 104.79-10L104.79-10Q104.79-11.2 104.99-12L104.99-12 103.49-12Q103.29-12.85 103.29-14L103.29-14Q103.29-15.2 103.49-16L103.49-16 101.99-16Q101.79-16.85 101.79-18L101.79-18Q101.79-19.2 101.99-20L101.99-20Q101.79-20.85 101.79-22L101.79-22Q101.79-23.2 101.99-24L101.99-24Q101.79-24.85 101.79-26L101.79-26Q101.79-27.2 101.99-28L101.99-28 105.99-28Q106.19-27.2 106.19-26L106.19-26Q106.19-24.85 105.99-24L105.99-24Q106.19-23.2 106.19-22L106.19-22Q106.19-20.85 105.99-20L105.99-20Q106.19-19.2 106.19-18L106.19-18Q106.19-16.85 105.99-16L105.99-16 107.49-16Q107.69-15.2 107.69-14L107.69-14Q107.69-12.85 107.49-12L107.49-12 108.99-12Q109.19-11.2 109.19-10L109.19-10Q109.19-8.85 108.99-8L108.99-8 110.99-8Q110.79-8.85 110.79-10L110.79-10Q110.79-11.2 110.99-12L110.99-12 112.49-12Q112.29-12.85 112.29-14L112.29-14Q112.29-15.2 112.49-16L112.49-16 113.99-16Q113.79-16.85 113.79-18L113.79-18Q113.79-19.2 113.99-20L113.99-20Q113.79-20.85 113.79-22L113.79-22Q113.79-23.2 113.99-24L113.99-24Q113.79-24.85 113.79-26L113.79-26Q113.79-27.2 113.99-28L113.99-28 117.99-28Q118.19-27.2 118.19-26L118.19-26Q118.19-24.85 117.99-24L117.99-24Z" opacity="1" transform="matrix(1,0,0,1,0,0)" fill="#000000" class="wordmark-text-0" data-fill-palette-color="primary" id="text-0"></path></svg></g></svg></g></svg></g></svg></g></svg></g></svg></g><path d="M197.691 88.201L197.691 29.262 9.014 29.262 9.014 217.938 197.691 217.938 197.691 158.999 192.388 158.999 192.388 212.636 14.317 212.636 14.317 34.564 192.388 34.564 192.388 88.201Z" fill="#000000" stroke="transparent" data-fill-palette-color="tertiary"></path></svg></g><defs></defs></svg><rect width="395.52" height="247.2" fill="none" stroke="none" visibility="hidden"></rect></g></svg></g></svg>